<svg width="58" height="21" viewBox="0 0 58 21" fill="none" xmlns="http://www.w3.org/2000/svg">
<path d="M6.51758 5.88867C6.51758 6.9043 6.30078 7.69727 5.86719 8.26758C5.43359 8.83398 4.82812 9.11719 4.05078 9.11719C3.36328 9.11719 2.81445 8.85352 2.4043 8.32617L2.32812 9H0.804688V0H2.49805V3.22852C2.88867 2.77148 3.40234 2.54297 4.03906 2.54297C4.8125 2.54297 5.41797 2.82812 5.85547 3.39844C6.29688 3.96484 6.51758 4.76367 6.51758 5.79492V5.88867ZM4.82422 5.76562C4.82422 5.125 4.72266 4.6582 4.51953 4.36523C4.31641 4.06836 4.01367 3.91992 3.61133 3.91992C3.07227 3.91992 2.70117 4.14062 2.49805 4.58203V7.08398C2.70508 7.5293 3.08008 7.75195 3.62305 7.75195C4.16992 7.75195 4.5293 7.48242 4.70117 6.94336C4.7832 6.68555 4.82422 6.29297 4.82422 5.76562ZM11.2402 9C11.1621 8.84766 11.1055 8.6582 11.0703 8.43164C10.6602 8.88867 10.127 9.11719 9.4707 9.11719C8.84961 9.11719 8.33398 8.9375 7.92383 8.57812C7.51758 8.21875 7.31445 7.76562 7.31445 7.21875C7.31445 6.54688 7.5625 6.03125 8.05859 5.67188C8.55859 5.3125 9.2793 5.13086 10.2207 5.12695H11V4.76367C11 4.4707 10.9238 4.23633 10.7715 4.06055C10.623 3.88477 10.3867 3.79688 10.0625 3.79688C9.77734 3.79688 9.55273 3.86523 9.38867 4.00195C9.22852 4.13867 9.14844 4.32617 9.14844 4.56445H7.45508C7.45508 4.19727 7.56836 3.85742 7.79492 3.54492C8.02148 3.23242 8.3418 2.98828 8.75586 2.8125C9.16992 2.63281 9.63477 2.54297 10.1504 2.54297C10.9316 2.54297 11.5508 2.74023 12.0078 3.13477C12.4688 3.52539 12.6992 4.07617 12.6992 4.78711V7.53516C12.7031 8.13672 12.7871 8.5918 12.9512 8.90039V9H11.2402ZM9.83984 7.82227C10.0898 7.82227 10.3203 7.76758 10.5312 7.6582C10.7422 7.54492 10.8984 7.39453 11 7.20703V6.11719H10.3672C9.51953 6.11719 9.06836 6.41016 9.01367 6.99609L9.00781 7.0957C9.00781 7.30664 9.08203 7.48047 9.23047 7.61719C9.37891 7.75391 9.58203 7.82227 9.83984 7.82227ZM17.4336 7.24805C17.4336 7.04102 17.3301 6.87891 17.123 6.76172C16.9199 6.64062 16.5918 6.5332 16.1387 6.43945C14.6309 6.12305 13.877 5.48242 13.877 4.51758C13.877 3.95508 14.1094 3.48633 14.5742 3.11133C15.043 2.73242 15.6543 2.54297 16.4082 2.54297C17.2129 2.54297 17.8555 2.73242 18.3359 3.11133C18.8203 3.49023 19.0625 3.98242 19.0625 4.58789H17.3691C17.3691 4.3457 17.291 4.14648 17.1348 3.99023C16.9785 3.83008 16.7344 3.75 16.4023 3.75C16.1172 3.75 15.8965 3.81445 15.7402 3.94336C15.584 4.07227 15.5059 4.23633 15.5059 4.43555C15.5059 4.62305 15.5938 4.77539 15.7695 4.89258C15.9492 5.00586 16.25 5.10547 16.6719 5.19141C17.0938 5.27344 17.4492 5.36719 17.7383 5.47266C18.6328 5.80078 19.0801 6.36914 19.0801 7.17773C19.0801 7.75586 18.832 8.22461 18.3359 8.58398C17.8398 8.93945 17.1992 9.11719 16.4141 9.11719C15.8828 9.11719 15.4102 9.02344 14.9961 8.83594C14.5859 8.64453 14.2637 8.38477 14.0293 8.05664C13.7949 7.72461 13.6777 7.36719 13.6777 6.98438H15.2832C15.2988 7.28516 15.4102 7.51562 15.6172 7.67578C15.8242 7.83594 16.1016 7.91602 16.4492 7.91602C16.7734 7.91602 17.0176 7.85547 17.1816 7.73438C17.3496 7.60938 17.4336 7.44727 17.4336 7.24805ZM21.9629 9H20.2637V2.66016H21.9629V9ZM20.1641 1.01953C20.1641 0.765625 20.248 0.556641 20.416 0.392578C20.5879 0.228516 20.8203 0.146484 21.1133 0.146484C21.4023 0.146484 21.6328 0.228516 21.8047 0.392578C21.9766 0.556641 22.0625 0.765625 22.0625 1.01953C22.0625 1.27734 21.9746 1.48828 21.7988 1.65234C21.627 1.81641 21.3984 1.89844 21.1133 1.89844C20.8281 1.89844 20.5977 1.81641 20.4219 1.65234C20.25 1.48828 20.1641 1.27734 20.1641 1.01953ZM26.7969 7.24805C26.7969 7.04102 26.6934 6.87891 26.4863 6.76172C26.2832 6.64062 25.9551 6.5332 25.502 6.43945C23.9941 6.12305 23.2402 5.48242 23.2402 4.51758C23.2402 3.95508 23.4727 3.48633 23.9375 3.11133C24.4062 2.73242 25.0176 2.54297 25.7715 2.54297C26.5762 2.54297 27.2188 2.73242 27.6992 3.11133C28.1836 3.49023 28.4258 3.98242 28.4258 4.58789H26.7324C26.7324 4.3457 26.6543 4.14648 26.498 3.99023C26.3418 3.83008 26.0977 3.75 25.7656 3.75C25.4805 3.75 25.2598 3.81445 25.1035 3.94336C24.9473 4.07227 24.8691 4.23633 24.8691 4.43555C24.8691 4.62305 24.957 4.77539 25.1328 4.89258C25.3125 5.00586 25.6133 5.10547 26.0352 5.19141C26.457 5.27344 26.8125 5.36719 27.1016 5.47266C27.9961 5.80078 28.4434 6.36914 28.4434 7.17773C28.4434 7.75586 28.1953 8.22461 27.6992 8.58398C27.2031 8.93945 26.5625 9.11719 25.7773 9.11719C25.2461 9.11719 24.7734 9.02344 24.3594 8.83594C23.9492 8.64453 23.627 8.38477 23.3926 8.05664C23.1582 7.72461 23.041 7.36719 23.041 6.98438H24.6465C24.6621 7.28516 24.7734 7.51562 24.9805 7.67578C25.1875 7.83594 25.4648 7.91602 25.8125 7.91602C26.1367 7.91602 26.3809 7.85547 26.5449 7.73438C26.7129 7.60938 26.7969 7.44727 26.7969 7.24805ZM32.252 8.23242C32.6387 8.23242 32.9766 8.11523 33.2656 7.88086C33.5547 7.64648 33.7148 7.35352 33.7461 7.00195H34.7715C34.752 7.36523 34.627 7.71094 34.3965 8.03906C34.166 8.36719 33.8574 8.62891 33.4707 8.82422C33.0879 9.01953 32.6816 9.11719 32.252 9.11719C31.3887 9.11719 30.7012 8.83008 30.1895 8.25586C29.6816 7.67773 29.4277 6.88867 29.4277 5.88867V5.70703C29.4277 5.08984 29.541 4.54102 29.7676 4.06055C29.9941 3.58008 30.3184 3.20703 30.7402 2.94141C31.166 2.67578 31.668 2.54297 32.2461 2.54297C32.957 2.54297 33.5469 2.75586 34.0156 3.18164C34.4883 3.60742 34.7402 4.16016 34.7715 4.83984H33.7461C33.7148 4.42969 33.5586 4.09375 33.2773 3.83203C33 3.56641 32.6562 3.43359 32.2461 3.43359C31.6953 3.43359 31.2676 3.63281 30.9629 4.03125C30.6621 4.42578 30.5117 4.99805 30.5117 5.74805V5.95312C30.5117 6.68359 30.6621 7.24609 30.9629 7.64062C31.2637 8.03516 31.6934 8.23242 32.252 8.23242ZM37.0742 3.42773C37.5547 2.83789 38.1797 2.54297 38.9492 2.54297C40.2891 2.54297 40.9648 3.29883 40.9766 4.81055V9H39.8926V4.80469C39.8887 4.34766 39.7832 4.00977 39.5762 3.79102C39.373 3.57227 39.0547 3.46289 38.6211 3.46289C38.2695 3.46289 37.9609 3.55664 37.6953 3.74414C37.4297 3.93164 37.2227 4.17773 37.0742 4.48242V9H35.9902V0H37.0742V3.42773ZM46.5137 9C46.4512 8.875 46.4004 8.65234 46.3613 8.33203C45.8574 8.85547 45.2559 9.11719 44.5566 9.11719C43.9316 9.11719 43.418 8.94141 43.0156 8.58984C42.6172 8.23438 42.418 7.78516 42.418 7.24219C42.418 6.58203 42.668 6.07031 43.168 5.70703C43.6719 5.33984 44.3789 5.15625 45.2891 5.15625H46.3438V4.6582C46.3438 4.2793 46.2305 3.97852 46.0039 3.75586C45.7773 3.5293 45.4434 3.41602 45.002 3.41602C44.6152 3.41602 44.291 3.51367 44.0293 3.70898C43.7676 3.9043 43.6367 4.14062 43.6367 4.41797H42.5469C42.5469 4.10156 42.6582 3.79688 42.8809 3.50391C43.1074 3.20703 43.4121 2.97266 43.7949 2.80078C44.1816 2.62891 44.6055 2.54297 45.0664 2.54297C45.7969 2.54297 46.3691 2.72656 46.7832 3.09375C47.1973 3.45703 47.4121 3.95898 47.4277 4.59961V7.51758C47.4277 8.09961 47.502 8.5625 47.6504 8.90625V9H46.5137ZM44.7148 8.17383C45.0547 8.17383 45.377 8.08594 45.6816 7.91016C45.9863 7.73438 46.207 7.50586 46.3438 7.22461V5.92383H45.4941C44.166 5.92383 43.502 6.3125 43.502 7.08984C43.502 7.42969 43.6152 7.69531 43.8418 7.88672C44.0684 8.07812 44.3594 8.17383 44.7148 8.17383ZM50.3047 9H49.2207V2.66016H50.3047V9ZM49.1328 0.978516C49.1328 0.802734 49.1855 0.654297 49.291 0.533203C49.4004 0.412109 49.5605 0.351562 49.7715 0.351562C49.9824 0.351562 50.1426 0.412109 50.252 0.533203C50.3613 0.654297 50.416 0.802734 50.416 0.978516C50.416 1.1543 50.3613 1.30078 50.252 1.41797C50.1426 1.53516 49.9824 1.59375 49.7715 1.59375C49.5605 1.59375 49.4004 1.53516 49.291 1.41797C49.1855 1.30078 49.1328 1.1543 49.1328 0.978516ZM53.0703 2.66016L53.1055 3.45703C53.5898 2.84766 54.2227 2.54297 55.0039 2.54297C56.3438 2.54297 57.0195 3.29883 57.0312 4.81055V9H55.9473V4.80469C55.9434 4.34766 55.8379 4.00977 55.6309 3.79102C55.4277 3.57227 55.1094 3.46289 54.6758 3.46289C54.3242 3.46289 54.0156 3.55664 53.75 3.74414C53.4844 3.93164 53.2773 4.17773 53.1289 4.48242V9H52.0449V2.66016H53.0703ZM8.95361 15.0234V20H8.5332V15.3823H6.43115L6.31494 17.4399C6.26937 18.1759 6.19873 18.7114 6.10303 19.0464C6.0096 19.3791 5.87516 19.6206 5.69971 19.771C5.52653 19.9191 5.29069 19.9954 4.99219 20H4.81445V19.6445L4.95117 19.6411C5.18587 19.6297 5.36247 19.5557 5.48096 19.4189C5.59945 19.2822 5.69059 19.0612 5.75439 18.7559C5.82048 18.4482 5.87174 17.9743 5.9082 17.334L6.03125 15.0234H8.95361ZM12.9697 18.6055H10.7104L10.1978 20H9.75684L11.6401 15.0234H12.04L13.9233 20H13.4858L12.9697 18.6055ZM10.8403 18.2466H12.8364L11.8384 15.5361L10.8403 18.2466ZM17.6353 15.3823H15.0581V17.1836H16.292C16.6315 17.1836 16.9255 17.2406 17.1738 17.3545C17.4222 17.4661 17.6113 17.6279 17.7412 17.8398C17.8734 18.0495 17.9395 18.2979 17.9395 18.585C17.9395 19.0247 17.7925 19.3711 17.4985 19.624C17.2046 19.8747 16.7979 20 16.2783 20H14.6343V15.0234H17.6353V15.3823ZM15.0581 17.5425V19.6445H16.2886C16.6737 19.6445 16.9744 19.55 17.1909 19.3608C17.4074 19.1694 17.5156 18.9085 17.5156 18.5781C17.5156 18.2637 17.4108 18.0142 17.2012 17.8296C16.9915 17.6427 16.6976 17.547 16.3193 17.5425H15.0581ZM22.7314 17.7817C22.7314 18.2397 22.6517 18.6419 22.4922 18.9883C22.335 19.3346 22.1094 19.6012 21.8154 19.7881C21.5215 19.9749 21.182 20.0684 20.7969 20.0684C20.2158 20.0684 19.7464 19.861 19.3887 19.4463C19.0309 19.0293 18.8521 18.4676 18.8521 17.7612V17.2485C18.8521 16.7951 18.9318 16.394 19.0913 16.0454C19.2531 15.6945 19.481 15.4256 19.7749 15.2388C20.0688 15.0496 20.4072 14.9551 20.79 14.9551C21.1729 14.9551 21.5101 15.0474 21.8018 15.2319C22.0957 15.4165 22.3224 15.6774 22.4819 16.0146C22.6414 16.3519 22.7246 16.7427 22.7314 17.187V17.7817ZM22.311 17.2417C22.311 16.6424 22.1755 16.173 21.9043 15.8335C21.6331 15.494 21.2617 15.3242 20.79 15.3242C20.3275 15.3242 19.9583 15.4951 19.6826 15.8369C19.4092 16.1764 19.2725 16.6515 19.2725 17.2622V17.7817C19.2725 18.3719 19.4092 18.8402 19.6826 19.1865C19.9561 19.5306 20.3275 19.7026 20.7969 19.7026C21.2731 19.7026 21.6445 19.5329 21.9111 19.1934C22.1777 18.8516 22.311 18.3765 22.311 17.7681V17.2417ZM24.2114 17.9731V20H23.791V15.0234H25.4863C26.0036 15.0234 26.4115 15.1556 26.71 15.4199C27.0107 15.6842 27.1611 16.0477 27.1611 16.5103C27.1611 16.9774 27.0164 17.3385 26.7271 17.5938C26.4399 17.8467 26.0229 17.9731 25.4761 17.9731H24.2114ZM24.2114 17.6177H25.4863C25.8942 17.6177 26.2052 17.5208 26.4194 17.3271C26.6336 17.1335 26.7407 16.8634 26.7407 16.5171C26.7407 16.173 26.6336 15.8996 26.4194 15.6968C26.2075 15.4917 25.9056 15.3869 25.5137 15.3823H24.2114V17.6177ZM30.3193 18.6055H28.0601L27.5474 20H27.1064L28.9897 15.0234H29.3896L31.2729 20H30.8354L30.3193 18.6055ZM28.1899 18.2466H30.186L29.188 15.5361L28.1899 18.2466ZM34.9404 15.3823H33.2349V20H32.8145V15.3823H31.1123V15.0234H34.9404V15.3823ZM39.3291 17.7817C39.3291 18.2397 39.2493 18.6419 39.0898 18.9883C38.9326 19.3346 38.707 19.6012 38.4131 19.7881C38.1191 19.9749 37.7796 20.0684 37.3945 20.0684C36.8135 20.0684 36.3441 19.861 35.9863 19.4463C35.6286 19.0293 35.4497 18.4676 35.4497 17.7612V17.2485C35.4497 16.7951 35.5295 16.394 35.689 16.0454C35.8507 15.6945 36.0786 15.4256 36.3726 15.2388C36.6665 15.0496 37.0049 14.9551 37.3877 14.9551C37.7705 14.9551 38.1077 15.0474 38.3994 15.2319C38.6934 15.4165 38.9201 15.6774 39.0796 16.0146C39.2391 16.3519 39.3223 16.7427 39.3291 17.187V17.7817ZM38.9087 17.2417C38.9087 16.6424 38.7731 16.173 38.502 15.8335C38.2308 15.494 37.8594 15.3242 37.3877 15.3242C36.9251 15.3242 36.556 15.4951 36.2803 15.8369C36.0068 16.1764 35.8701 16.6515 35.8701 17.2622V17.7817C35.8701 18.3719 36.0068 18.8402 36.2803 19.1865C36.5537 19.5306 36.9251 19.7026 37.3945 19.7026C37.8708 19.7026 38.2422 19.5329 38.5088 19.1934C38.7754 18.8516 38.9087 18.3765 38.9087 17.7681V17.2417ZM40.8091 17.9731V20H40.3887V15.0234H42.084C42.6012 15.0234 43.0091 15.1556 43.3076 15.4199C43.6084 15.6842 43.7588 16.0477 43.7588 16.5103C43.7588 16.9774 43.6141 17.3385 43.3247 17.5938C43.0376 17.8467 42.6206 17.9731 42.0737 17.9731H40.8091ZM40.8091 17.6177H42.084C42.4919 17.6177 42.8029 17.5208 43.0171 17.3271C43.2313 17.1335 43.3384 16.8634 43.3384 16.5171C43.3384 16.173 43.2313 15.8996 43.0171 15.6968C42.8052 15.4917 42.5033 15.3869 42.1113 15.3823H40.8091V17.6177ZM47.9731 15.0234H48.3936V20H47.9731V15.7412L45.1396 20H44.7158V15.0234H45.1396V19.2788L47.9731 15.0234ZM52.3311 20V17.9731H50.8989L49.812 20H49.3574L50.5298 17.8569C50.2085 17.7453 49.9635 17.5767 49.7949 17.3511C49.6263 17.1255 49.542 16.8498 49.542 16.5239C49.542 16.0545 49.6901 15.6877 49.9863 15.4233C50.2848 15.1567 50.7041 15.0234 51.2441 15.0234H52.7549V20H52.3311ZM49.9624 16.5205C49.9624 16.8486 50.0649 17.113 50.27 17.3135C50.4774 17.514 50.7622 17.6143 51.1245 17.6143H52.3311V15.3823H51.2305C50.8249 15.3823 50.5116 15.4814 50.2905 15.6797C50.0718 15.8757 49.9624 16.1559 49.9624 16.5205Z" fill="#212121"/>
</svg>
