<?xml version="1.0" encoding="UTF-8" standalone="no"?>
<svg
   xmlns:dc="http://purl.org/dc/elements/1.1/"
   xmlns:cc="http://creativecommons.org/ns#"
   xmlns:rdf="http://www.w3.org/1999/02/22-rdf-syntax-ns#"
   xmlns:svg="http://www.w3.org/2000/svg"
   xmlns="http://www.w3.org/2000/svg"
   xmlns:sodipodi="http://sodipodi.sourceforge.net/DTD/sodipodi-0.dtd"
   xmlns:inkscape="http://www.inkscape.org/namespaces/inkscape"
   width="99.012001"
   height="25.298"
   viewBox="0 0 99.012001 25.298"
   version="1.1"
   id="svg6"
   sodipodi:docname="logo.svg"
   style="fill:none"
   inkscape:version="0.92.3 (2405546, 2018-03-11)">
  <metadata
     id="metadata12">
    <rdf:RDF>
      <cc:Work
         rdf:about="">
        <dc:format>image/svg+xml</dc:format>
        <dc:type
           rdf:resource="http://purl.org/dc/dcmitype/StillImage" />
        <dc:title></dc:title>
      </cc:Work>
    </rdf:RDF>
  </metadata>
  <defs
     id="defs10" />
  <sodipodi:namedview
     pagecolor="#ffffff"
     bordercolor="#666666"
     borderopacity="1"
     objecttolerance="10"
     gridtolerance="10"
     guidetolerance="10"
     inkscape:pageopacity="0"
     inkscape:pageshadow="2"
     inkscape:window-width="1388"
     inkscape:window-height="836"
     id="namedview8"
     showgrid="false"
     fit-margin-top="0"
     fit-margin-left="0"
     fit-margin-right="0"
     fit-margin-bottom="0"
     inkscape:zoom="2.4857143"
     inkscape:cx="24.155678"
     inkscape:cy="14.226"
     inkscape:window-x="52"
     inkscape:window-y="27"
     inkscape:window-maximized="1"
     inkscape:current-layer="svg6" />
  <path
     d="m 7.514,20.254 c -1.43867,0 -2.73,-0.3033 -3.874,-0.91 C 2.496,18.7373 1.60333,17.8967 0.962,16.822 0.32067,15.73 0,14.4993 0,13.13 0,11.7607 0.32067,10.5387 0.962,9.464 1.60333,8.3893 2.48733,7.5487 3.614,6.942 c 1.144,-0.6067 2.444,-0.91 3.9,-0.91 1.36933,0 2.5653,0.2773 3.588,0.832 1.04,0.5547 1.82,1.352 2.34,2.392 l -2.496,1.456 C 10.5473,10.0707 10.0447,9.594 9.438,9.282 8.84867,8.9527 8.19867,8.788 7.488,8.788 c -1.21333,0 -2.21867,0.3987 -3.016,1.196 -0.79733,0.78 -1.196,1.8287 -1.196,3.146 0,1.3173 0.39,2.3747 1.17,3.172 0.79733,0.78 1.81133,1.17 3.042,1.17 0.71067,0 1.36067,-0.156 1.95,-0.468 0.6067,-0.3293 1.1093,-0.8147 1.508,-1.456 l 2.496,1.456 c -0.5373,1.04 -1.326,1.846 -2.366,2.418 -1.0227,0.5547 -2.21,0.832 -3.562,0.832 z M 24.0025,6.032 c 1.7506,0 3.1546,0.5113 4.212,1.534 1.0573,1.0227 1.586,2.5393 1.586,4.55 v 7.956 h -3.25 v -7.54 c 0,-1.2133 -0.286,-2.1233 -0.858,-2.73 -0.572,-0.624 -1.3867,-0.936 -2.444,-0.936 -1.196,0 -2.1407,0.364 -2.834,1.092 -0.6934,0.7107 -1.04,1.742 -1.04,3.094 v 7.02 h -3.25 V 0.78 h 3.25 V 7.8 c 0.5373,-0.572 1.196,-1.0053 1.976,-1.3 0.7973,-0.312 1.6813,-0.468 2.652,-0.468 z m 15.2248,0 c 2.0453,0 3.6053,0.494 4.68,1.482 1.092,0.9707 1.638,2.444 1.638,4.42 v 8.138 h -3.068 v -1.69 c -0.3987,0.6067 -0.9707,1.0747 -1.716,1.404 -0.728,0.312 -1.612,0.468 -2.652,0.468 -1.04,0 -1.95,-0.1733 -2.73,-0.52 -0.78,-0.364 -1.3867,-0.858 -1.82,-1.482 -0.416,-0.6413 -0.624,-1.3607 -0.624,-2.158 0,-1.248 0.4593,-2.2447 1.378,-2.99 0.936,-0.7627 2.4007,-1.144 4.394,-1.144 h 3.588 v -0.208 c 0,-0.9707 -0.2947,-1.716 -0.884,-2.236 -0.572,-0.52 -1.43,-0.78 -2.574,-0.78 -0.78,0 -1.5513,0.1213 -2.314,0.364 -0.7453,0.2427 -1.378,0.5807 -1.898,1.014 l -1.274,-2.366 c 0.728,-0.5547 1.6033,-0.9793 2.626,-1.274 1.0227,-0.2947 2.106,-0.442 3.25,-0.442 z m -0.442,11.856 c 0.8147,0 1.534,-0.182 2.158,-0.546 0.6413,-0.3813 1.092,-0.9187 1.352,-1.612 v -1.612 h -3.354 c -1.872,0 -2.808,0.6153 -2.808,1.846 0,0.5893 0.234,1.0573 0.702,1.404 0.468,0.3467 1.118,0.52 1.95,0.52 z m 14.025,-9.672 c 0.936,-1.456 2.5826,-2.184 4.94,-2.184 v 3.094 c -0.2774,-0.052 -0.5287,-0.078 -0.754,-0.078 -1.2654,0 -2.2534,0.3727 -2.964,1.118 -0.7107,0.728 -1.066,1.7853 -1.066,3.172 v 6.734 h -3.25 V 6.188 h 3.094 z m 7.697,-2.028 h 3.25 v 13.884 h -3.25 z M 62.1453,3.9 c -0.5894,0 -1.0834,-0.182 -1.482,-0.546 -0.3987,-0.3813 -0.598,-0.8493 -0.598,-1.404 0,-0.5547 0.1993,-1.014 0.598,-1.378 C 61.0619,0.1907 61.5559,0 62.1453,0 c 0.5893,0 1.0833,0.182 1.482,0.546 0.3986,0.3467 0.598,0.7887 0.598,1.326 0,0.572 -0.1994,1.0573 -0.598,1.456 C 63.2459,3.7093 62.7519,3.9 62.1453,3.9 Z m 14.2236,15.418 c -0.3813,0.312 -0.8493,0.546 -1.404,0.702 -0.5373,0.156 -1.1093,0.234 -1.716,0.234 -1.5253,0 -2.704,-0.3987 -3.536,-1.196 -0.832,-0.7973 -1.248,-1.9587 -1.248,-3.484 V 8.892 h -2.288 v -2.6 h 2.288 V 3.12 h 3.25 v 3.172 h 3.718 v 2.6 h -3.718 v 6.604 c 0,0.676 0.1647,1.196 0.494,1.56 0.3293,0.3467 0.806,0.52 1.43,0.52 0.728,0 1.3347,-0.1907 1.82,-0.572 z m 15.4196,-13.13 -6.5,15.002 c -0.6066,1.508 -1.3433,2.5653 -2.21,3.172 -0.8666,0.624 -1.9153,0.936 -3.146,0.936 -0.6933,0 -1.378,-0.1127 -2.054,-0.338 -0.676,-0.2253 -1.2306,-0.5373 -1.664,-0.936 l 1.3,-2.392 c 0.312,0.2947 0.676,0.5287 1.092,0.702 0.4334,0.1733 0.8667,0.26 1.3,0.26 0.572,0 1.04,-0.1473 1.404,-0.442 0.3814,-0.2947 0.728,-0.7887 1.04,-1.482 l 0.234,-0.546 -6.058,-13.936 h 3.38 l 4.368,10.27 4.394,-10.27 z"
     id="path2"
     inkscape:connector-curvature="0"
     style="fill:#212121" />
  <rect
     x="94.012001"
     y="15.072"
     width="5"
     height="5"
     id="rect4"
     style="fill:#1f9af3" />
</svg>
