<svg width="138" height="24" viewBox="0 0 138 24" fill="none" xmlns="http://www.w3.org/2000/svg">
<path d="M7.848 19.168C6.52 19.168 5.328 18.888 4.272 18.328C3.216 17.768 2.392 16.992 1.8 16C1.208 14.992 0.912 13.856 0.912 12.592C0.912 11.328 1.208 10.2 1.8 9.208C2.392 8.216 3.208 7.44 4.248 6.88C5.304 6.32 6.504 6.04 7.848 6.04C9.112 6.04 10.216 6.296 11.16 6.808C12.12 7.32 12.84 8.056 13.32 9.016L11.016 10.36C10.648 9.768 10.184 9.328 9.624 9.04C9.08 8.736 8.48 8.584 7.824 8.584C6.704 8.584 5.776 8.952 5.04 9.688C4.304 10.408 3.936 11.376 3.936 12.592C3.936 13.808 4.296 14.784 5.016 15.52C5.752 16.24 6.688 16.6 7.824 16.6C8.48 16.6 9.08 16.456 9.624 16.168C10.184 15.864 10.648 15.416 11.016 14.824L13.32 16.168C12.824 17.128 12.096 17.872 11.136 18.4C10.192 18.912 9.096 19.168 7.848 19.168ZM22.8281 6.04C24.4441 6.04 25.7401 6.512 26.7161 7.456C27.6921 8.4 28.1801 9.8 28.1801 11.656V19H25.1801V12.04C25.1801 10.92 24.9161 10.08 24.3881 9.52C23.8601 8.944 23.1081 8.656 22.1321 8.656C21.0281 8.656 20.1561 8.992 19.5161 9.664C18.8761 10.32 18.5561 11.272 18.5561 12.52V19H15.5561V1.192H18.5561V7.672C19.0521 7.144 19.6601 6.744 20.3801 6.472C21.1161 6.184 21.9321 6.04 22.8281 6.04ZM36.6418 6.04C38.5298 6.04 39.9698 6.496 40.9618 7.408C41.9698 8.304 42.4738 9.664 42.4738 11.488V19H39.6418V17.44C39.2738 18 38.7458 18.432 38.0578 18.736C37.3858 19.024 36.5698 19.168 35.6098 19.168C34.6498 19.168 33.8098 19.008 33.0898 18.688C32.3698 18.352 31.8098 17.896 31.4098 17.32C31.0258 16.728 30.8338 16.064 30.8338 15.328C30.8338 14.176 31.2578 13.256 32.1058 12.568C32.9698 11.864 34.3218 11.512 36.1618 11.512H39.4738V11.32C39.4738 10.424 39.2018 9.736 38.6578 9.256C38.1298 8.776 37.3378 8.536 36.2818 8.536C35.5618 8.536 34.8498 8.648 34.1458 8.872C33.4578 9.096 32.8738 9.408 32.3938 9.808L31.2178 7.624C31.8898 7.112 32.6978 6.72 33.6418 6.448C34.5858 6.176 35.5858 6.04 36.6418 6.04ZM36.2338 16.984C36.9858 16.984 37.6498 16.816 38.2258 16.48C38.8178 16.128 39.2338 15.632 39.4738 14.992V13.504H36.3778C34.6498 13.504 33.7858 14.072 33.7858 15.208C33.7858 15.752 34.0018 16.184 34.4338 16.504C34.8658 16.824 35.4658 16.984 36.2338 16.984ZM48.9399 8.056C49.8039 6.712 51.3239 6.04 53.4999 6.04V8.896C53.2439 8.848 53.0119 8.824 52.8039 8.824C51.6359 8.824 50.7239 9.168 50.0679 9.856C49.4119 10.528 49.0839 11.504 49.0839 12.784V19H46.0839V6.184H48.9399V8.056ZM55.8049 6.184H58.8049V19H55.8049V6.184ZM57.3169 4.072C56.7729 4.072 56.3169 3.904 55.9489 3.568C55.5809 3.216 55.3969 2.784 55.3969 2.272C55.3969 1.76 55.5809 1.336 55.9489 0.999999C56.3169 0.647999 56.7729 0.472 57.3169 0.472C57.8609 0.472 58.3169 0.639999 58.6849 0.975999C59.0529 1.296 59.2369 1.704 59.2369 2.2C59.2369 2.728 59.0529 3.176 58.6849 3.544C58.3329 3.896 57.8769 4.072 57.3169 4.072ZM70.2064 18.304C69.8544 18.592 69.4224 18.808 68.9104 18.952C68.4144 19.096 67.8864 19.168 67.3264 19.168C65.9184 19.168 64.8304 18.8 64.0624 18.064C63.2944 17.328 62.9104 16.256 62.9104 14.848V8.68H60.7984V6.28H62.9104V3.352H65.9104V6.28H69.3424V8.68H65.9104V14.776C65.9104 15.4 66.0624 15.88 66.3664 16.216C66.6704 16.536 67.1104 16.696 67.6864 16.696C68.3584 16.696 68.9184 16.52 69.3664 16.168L70.2064 18.304ZM84.1999 6.184L78.1999 20.032C77.6399 21.424 76.9599 22.4 76.1599 22.96C75.3599 23.536 74.3919 23.824 73.2559 23.824C72.6159 23.824 71.9839 23.72 71.3599 23.512C70.7359 23.304 70.2239 23.016 69.8239 22.648L71.0239 20.44C71.3119 20.712 71.6479 20.928 72.0319 21.088C72.4319 21.248 72.8319 21.328 73.2319 21.328C73.7599 21.328 74.1919 21.192 74.5279 20.92C74.8799 20.648 75.1999 20.192 75.4879 19.552L75.7039 19.048L70.1119 6.184H73.2319L77.2639 15.664L81.3199 6.184H84.1999Z" fill="#212121"/>
<path d="M89.7949 19.168C88.7549 19.168 87.7389 19.032 86.7469 18.76C85.7549 18.488 84.9629 18.144 84.3709 17.728L85.5229 15.448C86.0989 15.832 86.7869 16.144 87.5869 16.384C88.4029 16.608 89.2029 16.72 89.9869 16.72C91.7789 16.72 92.6749 16.248 92.6749 15.304C92.6749 14.856 92.4429 14.544 91.9789 14.368C91.5309 14.192 90.8029 14.024 89.7949 13.864C88.7389 13.704 87.8749 13.52 87.2029 13.312C86.5469 13.104 85.9709 12.744 85.4749 12.232C84.9949 11.704 84.7549 10.976 84.7549 10.048C84.7549 8.832 85.2589 7.864 86.2669 7.144C87.2909 6.408 88.6669 6.04 90.3949 6.04C91.2749 6.04 92.1549 6.144 93.0349 6.352C93.9149 6.544 94.6349 6.808 95.1949 7.144L94.0429 9.424C92.9549 8.784 91.7309 8.464 90.3709 8.464C89.4909 8.464 88.8189 8.6 88.3549 8.872C87.9069 9.128 87.6829 9.472 87.6829 9.904C87.6829 10.384 87.9229 10.728 88.4029 10.936C88.8989 11.128 89.6589 11.312 90.6829 11.488C91.7069 11.648 92.5469 11.832 93.2029 12.04C93.8589 12.248 94.4189 12.6 94.8829 13.096C95.3629 13.592 95.6029 14.296 95.6029 15.208C95.6029 16.408 95.0829 17.368 94.0429 18.088C93.0029 18.808 91.5869 19.168 89.7949 19.168ZM105.05 6.04C106.298 6.04 107.41 6.312 108.386 6.856C109.378 7.4 110.154 8.168 110.714 9.16C111.274 10.152 111.554 11.296 111.554 12.592C111.554 13.888 111.274 15.04 110.714 16.048C110.154 17.04 109.378 17.808 108.386 18.352C107.41 18.896 106.298 19.168 105.05 19.168C103.322 19.168 101.954 18.592 100.946 17.44V23.656H97.9464V6.184H100.802V7.864C101.298 7.256 101.906 6.8 102.626 6.496C103.362 6.192 104.17 6.04 105.05 6.04ZM104.714 16.6C105.818 16.6 106.722 16.232 107.426 15.496C108.146 14.76 108.506 13.792 108.506 12.592C108.506 11.392 108.146 10.424 107.426 9.688C106.722 8.952 105.818 8.584 104.714 8.584C103.994 8.584 103.346 8.752 102.77 9.088C102.194 9.408 101.738 9.872 101.402 10.48C101.066 11.088 100.898 11.792 100.898 12.592C100.898 13.392 101.066 14.096 101.402 14.704C101.738 15.312 102.194 15.784 102.77 16.12C103.346 16.44 103.994 16.6 104.714 16.6ZM119.92 19.168C118.624 19.168 117.456 18.888 116.416 18.328C115.376 17.768 114.56 16.992 113.968 16C113.392 14.992 113.104 13.856 113.104 12.592C113.104 11.328 113.392 10.2 113.968 9.208C114.56 8.216 115.376 7.44 116.416 6.88C117.456 6.32 118.624 6.04 119.92 6.04C121.232 6.04 122.408 6.32 123.448 6.88C124.488 7.44 125.296 8.216 125.872 9.208C126.464 10.2 126.76 11.328 126.76 12.592C126.76 13.856 126.464 14.992 125.872 16C125.296 16.992 124.488 17.768 123.448 18.328C122.408 18.888 121.232 19.168 119.92 19.168ZM119.92 16.6C121.024 16.6 121.936 16.232 122.656 15.496C123.376 14.76 123.736 13.792 123.736 12.592C123.736 11.392 123.376 10.424 122.656 9.688C121.936 8.952 121.024 8.584 119.92 8.584C118.816 8.584 117.904 8.952 117.184 9.688C116.48 10.424 116.128 11.392 116.128 12.592C116.128 13.792 116.48 14.76 117.184 15.496C117.904 16.232 118.816 16.6 119.92 16.6ZM137.092 18.304C136.74 18.592 136.308 18.808 135.796 18.952C135.3 19.096 134.772 19.168 134.212 19.168C132.804 19.168 131.716 18.8 130.948 18.064C130.18 17.328 129.796 16.256 129.796 14.848V8.68H127.684V6.28H129.796V3.352H132.796V6.28H136.228V8.68H132.796V14.776C132.796 15.4 132.948 15.88 133.252 16.216C133.556 16.536 133.996 16.696 134.572 16.696C135.244 16.696 135.804 16.52 136.252 16.168L137.092 18.304Z" fill="#1F9AF3"/>
</svg>
